<svg xmlns="http://www.w3.org/2000/svg" viewBox="0 0 320 240">
  <!-- Background -->
  <circle cx="160" cy="120" r="90" fill="#E0F2F1"/>

  <!-- Bell body — scaled up ~1.3× -->
  <path d="M 121 130 Q 118 91 160 83 Q 202 91 199 130 Z" fill="#00796B"/>
  <!-- Bell bottom rim -->
  <ellipse cx="160" cy="130" rx="39" ry="9" fill="#00796B"/>
  <!-- Clapper — hangs below the bottom rim -->
  <circle cx="160" cy="152" r="10" fill="#004D40"/>
  <!-- Bell top knob -->
  <circle cx="160" cy="83" r="6" fill="#004D40"/>

  <!-- Calendar card -->
  <rect x="188" y="82" width="52" height="50" rx="6" fill="white" stroke="#00796B" stroke-width="2"/>
  <!-- Calendar header -->
  <rect x="188" y="82" width="52" height="14" rx="6" fill="#00796B"/>
  <rect x="188" y="89" width="52" height="7" fill="#00796B"/>
  <!-- Calendar grid dots -->
  <circle cx="200" cy="107" r="3" fill="#8BC34A"/>
  <circle cx="214" cy="107" r="3" fill="#8BC34A"/>
  <circle cx="228" cy="107" r="3" fill="#FFB74D"/>
  <circle cx="200" cy="120" r="3" fill="#8BC34A"/>
  <circle cx="214" cy="120" r="3" fill="#8BC34A"/>
  <circle cx="228" cy="120" r="3" fill="#8BC34A"/>

  <!-- Notification pulse rings — inner ring ~80% on bell, outer rings radiate outward -->
  <circle cx="129" cy="107" r="10" fill="none" stroke="#FFB74D" stroke-width="2.5" opacity="0.7"/>
  <circle cx="129" cy="107" r="16" fill="none" stroke="#FFB74D" stroke-width="1.5" opacity="0.4"/>
  <circle cx="129" cy="107" r="6" fill="#FFB74D"/>

  <!-- Milestone dots at r≈60 from centre (160,120), matching slide 0 positions -->
  <circle cx="198" cy="74" r="6" fill="#FFB74D" opacity="0.6"/>
  <circle cx="216" cy="140" r="6" fill="#8BC34A" opacity="0.6"/>
  <circle cx="140" cy="176" r="6" fill="#00796B" opacity="0.6"/>
</svg>
