<svg xmlns="http://www.w3.org/2000/svg" viewBox="0 0 320 240">
  <!-- Background -->
  <circle cx="160" cy="120" r="90" fill="#E0F2F1"/>

  <!-- Chart baseline -->
  <line x1="100" y1="168" x2="224" y2="168" stroke="#004D40" stroke-width="3" stroke-linecap="round"/>
  <line x1="100" y1="168" x2="100" y2="76" stroke="#004D40" stroke-width="3" stroke-linecap="round"/>

  <!-- Bars — no opacity, linearly interpolated color from #8BC34A → #00796B -->
  <rect x="110" y="148" width="20" height="20" rx="3" fill="#8BC34A"/>
  <rect x="138" y="128" width="20" height="40" rx="3" fill="#5DAA55"/>
  <rect x="166" y="108" width="20" height="60" rx="3" fill="#2E9260"/>
  <rect x="194" y="88" width="20" height="80" rx="3" fill="#00796B"/>

  <!-- Trend line — connects all dots and the star -->
  <polyline points="120,144 148,124 176,104 204,84"
            fill="none" stroke="#FFB74D" stroke-width="3"
            stroke-linecap="round" stroke-linejoin="round"/>

  <!-- Trend dots -->
  <circle cx="120" cy="144" r="5" fill="#FFB74D"/>
  <circle cx="148" cy="124" r="5" fill="#FFB74D"/>
  <circle cx="176" cy="104" r="7" fill="#FFB74D"/>

  <!-- Star burst at top — scaled up ~1.3× with stroke for definition -->
  <polygon points="204,68 208,79 220,79 211,85 214,97 204,91 194,97 198,85 188,79 200,79"
           fill="#FFB74D" stroke="white" stroke-width="1.5" stroke-linejoin="round"/>

  <!-- Milestone dots floating around the composition, clear of bars and star:
       upper-left above axis (104,64), right below star (222,106), lower-left below baseline (102,178) -->
  <circle cx="104" cy="64" r="6" fill="#8BC34A"/>
  <circle cx="222" cy="106" r="6" fill="#FFB74D"/>
  <circle cx="102" cy="178" r="6" fill="#00796B"/>
</svg>
